<?xml version="1.0" encoding="UTF-8" standalone="no"?><svg xmlns="http://www.w3.org/2000/svg" xmlns:xlink="http://www.w3.org/1999/xlink" contentScriptType="application/ecmascript" contentStyleType="text/css" height="493px" preserveAspectRatio="none" style="width:2279px;height:493px;" version="1.1" viewBox="0 0 2279 493" width="2279px" zoomAndPan="magnify"><defs><filter height="300%" id="fufibs6ioyr56" width="300%" x="-1" y="-1"><feGaussianBlur result="blurOut" stdDeviation="2.0"/><feColorMatrix in="blurOut" result="blurOut2" type="matrix" values="0 0 0 0 0 0 0 0 0 0 0 0 0 0 0 0 0 0 .4 0"/><feOffset dx="4.0" dy="4.0" in="blurOut2" result="blurOut3"/><feBlend in="SourceGraphic" in2="blurOut3" mode="normal"/></filter></defs><g><text fill="#000000" font-family="sans-serif" font-size="18" lengthAdjust="spacingAndGlyphs" textLength="51" x="1117.5" y="18.6855">Circuit</text><!--entity GND--><ellipse cx="1250" cy="158.6406" fill="#0000FF" filter="url(#fufibs6ioyr56)" rx="8" ry="8" style="stroke: #A80036; stroke-width: 2.0;"/><text fill="#000000" font-family="sans-serif" font-size="14" lengthAdjust="spacingAndGlyphs" textLength="30" x="1235" y="190.1738">GND</text><!--entity 5V--><ellipse cx="740" cy="158.6406" fill="#FF0000" filter="url(#fufibs6ioyr56)" rx="8" ry="8" style="stroke: #A80036; stroke-width: 2.0;"/><text fill="#000000" font-family="sans-serif" font-size="14" lengthAdjust="spacingAndGlyphs" textLength="17" x="731.5" y="190.1738">5V</text><!--entity InputPin--><ellipse cx="551" cy="158.6406" fill="#008000" filter="url(#fufibs6ioyr56)" rx="8" ry="8" style="stroke: #A80036; stroke-width: 2.0;"/><text fill="#000000" font-family="sans-serif" font-size="14" lengthAdjust="spacingAndGlyphs" textLength="51" x="525.5" y="190.1738">InputPin</text><!--entity OutputPin--><ellipse cx="1787" cy="158.6406" fill="#FFA500" filter="url(#fufibs6ioyr56)" rx="8" ry="8" style="stroke: #A80036; stroke-width: 2.0;"/><text fill="#000000" font-family="sans-serif" font-size="14" lengthAdjust="spacingAndGlyphs" textLength="63" x="1755.5" y="190.1738">OutputPin</text><!--entity HallSensor1--><rect fill="#DDA0DD" filter="url(#fufibs6ioyr56)" height="37.6094" style="stroke: #A80036; stroke-width: 1.5;" width="96" x="148" y="346.6406"/><rect fill="#DDA0DD" height="5" style="stroke: #A80036; stroke-width: 1.5;" width="10" x="143" y="351.6406"/><rect fill="#DDA0DD" height="5" style="stroke: #A80036; stroke-width: 1.5;" width="10" x="143" y="374.25"/><text fill="#000000" font-family="sans-serif" font-size="14" lengthAdjust="spacingAndGlyphs" textLength="76" x="158" y="371.1738">HallSensor1</text><!--entity HallSensor2--><rect fill="#DDA0DD" filter="url(#fufibs6ioyr56)" height="37.6094" style="stroke: #A80036; stroke-width: 1.5;" width="96" x="1000" y="346.6406"/><rect fill="#DDA0DD" height="5" style="stroke: #A80036; stroke-width: 1.5;" width="10" x="995" y="351.6406"/><rect fill="#DDA0DD" height="5" style="stroke: #A80036; stroke-width: 1.5;" width="10" x="995" y="374.25"/><text fill="#000000" font-family="sans-serif" font-size="14" lengthAdjust="spacingAndGlyphs" textLength="76" x="1010" y="371.1738">HallSensor2</text><!--entity HallSensor3--><rect fill="#DDA0DD" filter="url(#fufibs6ioyr56)" height="37.6094" style="stroke: #A80036; stroke-width: 1.5;" width="96" x="787" y="346.6406"/><rect fill="#DDA0DD" height="5" style="stroke: #A80036; stroke-width: 1.5;" width="10" x="782" y="351.6406"/><rect fill="#DDA0DD" height="5" style="stroke: #A80036; stroke-width: 1.5;" width="10" x="782" y="374.25"/><text fill="#000000" font-family="sans-serif" font-size="14" lengthAdjust="spacingAndGlyphs" textLength="76" x="797" y="371.1738">HallSensor3</text><!--entity HallSensor4--><rect fill="#DDA0DD" filter="url(#fufibs6ioyr56)" height="37.6094" style="stroke: #A80036; stroke-width: 1.5;" width="96" x="574" y="346.6406"/><rect fill="#DDA0DD" height="5" style="stroke: #A80036; stroke-width: 1.5;" width="10" x="569" y="351.6406"/><rect fill="#DDA0DD" height="5" style="stroke: #A80036; stroke-width: 1.5;" width="10" x="569" y="374.25"/><text fill="#000000" font-family="sans-serif" font-size="14" lengthAdjust="spacingAndGlyphs" textLength="76" x="584" y="371.1738">HallSensor4</text><!--entity HallSensor5--><rect fill="#DDA0DD" filter="url(#fufibs6ioyr56)" height="37.6094" style="stroke: #A80036; stroke-width: 1.5;" width="96" x="361" y="346.6406"/><rect fill="#DDA0DD" height="5" style="stroke: #A80036; stroke-width: 1.5;" width="10" x="356" y="351.6406"/><rect fill="#DDA0DD" height="5" style="stroke: #A80036; stroke-width: 1.5;" width="10" x="356" y="374.25"/><text fill="#000000" font-family="sans-serif" font-size="14" lengthAdjust="spacingAndGlyphs" textLength="76" x="371" y="371.1738">HallSensor5</text><!--entity HallSensor6--><rect fill="#DDA0DD" filter="url(#fufibs6ioyr56)" height="37.6094" style="stroke: #A80036; stroke-width: 1.5;" width="96" x="6" y="346.6406"/><rect fill="#DDA0DD" height="5" style="stroke: #A80036; stroke-width: 1.5;" width="10" x="1" y="351.6406"/><rect fill="#DDA0DD" height="5" style="stroke: #A80036; stroke-width: 1.5;" width="10" x="1" y="374.25"/><text fill="#000000" font-family="sans-serif" font-size="14" lengthAdjust="spacingAndGlyphs" textLength="76" x="16" y="371.1738">HallSensor6</text><!--entity SignalDiaode1--><rect fill="#9ACD32" filter="url(#fufibs6ioyr56)" height="37.6094" style="stroke: #A80036; stroke-width: 1.5;" width="112" x="1712" y="346.6406"/><rect fill="#9ACD32" height="5" style="stroke: #A80036; stroke-width: 1.5;" width="10" x="1707" y="351.6406"/><rect fill="#9ACD32" height="5" style="stroke: #A80036; stroke-width: 1.5;" width="10" x="1707" y="374.25"/><text fill="#000000" font-family="sans-serif" font-size="14" lengthAdjust="spacingAndGlyphs" textLength="92" x="1722" y="371.1738">SignalDiaode1</text><!--entity SignalDiaode2--><rect fill="#9ACD32" filter="url(#fufibs6ioyr56)" height="37.6094" style="stroke: #A80036; stroke-width: 1.5;" width="112" x="1562" y="346.6406"/><rect fill="#9ACD32" height="5" style="stroke: #A80036; stroke-width: 1.5;" width="10" x="1557" y="351.6406"/><rect fill="#9ACD32" height="5" style="stroke: #A80036; stroke-width: 1.5;" width="10" x="1557" y="374.25"/><text fill="#000000" font-family="sans-serif" font-size="14" lengthAdjust="spacingAndGlyphs" textLength="92" x="1572" y="371.1738">SignalDiaode2</text><!--entity SignalDiaode3--><rect fill="#9ACD32" filter="url(#fufibs6ioyr56)" height="37.6094" style="stroke: #A80036; stroke-width: 1.5;" width="112" x="1408" y="346.6406"/><rect fill="#9ACD32" height="5" style="stroke: #A80036; stroke-width: 1.5;" width="10" x="1403" y="351.6406"/><rect fill="#9ACD32" height="5" style="stroke: #A80036; stroke-width: 1.5;" width="10" x="1403" y="374.25"/><text fill="#000000" font-family="sans-serif" font-size="14" lengthAdjust="spacingAndGlyphs" textLength="92" x="1418" y="371.1738">SignalDiaode3</text><!--entity SignalDiaode4--><rect fill="#9ACD32" filter="url(#fufibs6ioyr56)" height="37.6094" style="stroke: #A80036; stroke-width: 1.5;" width="112" x="1861" y="346.6406"/><rect fill="#9ACD32" height="5" style="stroke: #A80036; stroke-width: 1.5;" width="10" x="1856" y="351.6406"/><rect fill="#9ACD32" height="5" style="stroke: #A80036; stroke-width: 1.5;" width="10" x="1856" y="374.25"/><text fill="#000000" font-family="sans-serif" font-size="14" lengthAdjust="spacingAndGlyphs" textLength="92" x="1871" y="371.1738">SignalDiaode4</text><!--entity SignalDiaode5--><rect fill="#9ACD32" filter="url(#fufibs6ioyr56)" height="37.6094" style="stroke: #A80036; stroke-width: 1.5;" width="112" x="2009" y="346.6406"/><rect fill="#9ACD32" height="5" style="stroke: #A80036; stroke-width: 1.5;" width="10" x="2004" y="351.6406"/><rect fill="#9ACD32" height="5" style="stroke: #A80036; stroke-width: 1.5;" width="10" x="2004" y="374.25"/><text fill="#000000" font-family="sans-serif" font-size="14" lengthAdjust="spacingAndGlyphs" textLength="92" x="2019" y="371.1738">SignalDiaode5</text><!--entity SignalDiaode6--><rect fill="#9ACD32" filter="url(#fufibs6ioyr56)" height="37.6094" style="stroke: #A80036; stroke-width: 1.5;" width="112" x="2156" y="346.6406"/><rect fill="#9ACD32" height="5" style="stroke: #A80036; stroke-width: 1.5;" width="10" x="2151" y="351.6406"/><rect fill="#9ACD32" height="5" style="stroke: #A80036; stroke-width: 1.5;" width="10" x="2151" y="374.25"/><text fill="#000000" font-family="sans-serif" font-size="14" lengthAdjust="spacingAndGlyphs" textLength="92" x="2166" y="371.1738">SignalDiaode6</text><!--entity Arduino--><rect fill="#008080" filter="url(#fufibs6ioyr56)" height="37.6094" style="stroke: #A80036; stroke-width: 1.5;" width="69" x="960.5" y="30.6406"/><rect fill="#008080" height="5" style="stroke: #A80036; stroke-width: 1.5;" width="10" x="955.5" y="35.6406"/><rect fill="#008080" height="5" style="stroke: #A80036; stroke-width: 1.5;" width="10" x="955.5" y="58.25"/><text fill="#000000" font-family="sans-serif" font-size="14" lengthAdjust="spacingAndGlyphs" textLength="49" x="970.5" y="55.1738">Arduino</text><!--entity LockCircuitControl--><rect fill="#87CEEB" filter="url(#fufibs6ioyr56)" height="37.6094" style="stroke: #A80036; stroke-width: 1.5;" width="136" x="1243" y="248.6406"/><rect fill="#87CEEB" height="5" style="stroke: #A80036; stroke-width: 1.5;" width="10" x="1238" y="253.6406"/><rect fill="#87CEEB" height="5" style="stroke: #A80036; stroke-width: 1.5;" width="10" x="1238" y="276.25"/><text fill="#000000" font-family="sans-serif" font-size="14" lengthAdjust="spacingAndGlyphs" textLength="116" x="1253" y="273.1738">LockCircuitControl</text><!--entity Lock--><rect fill="#FFD700" filter="url(#fufibs6ioyr56)" height="37.6094" style="stroke: #A80036; stroke-width: 1.5;" width="50" x="1235" y="444.6406"/><rect fill="#FFD700" height="5" style="stroke: #A80036; stroke-width: 1.5;" width="10" x="1230" y="449.6406"/><rect fill="#FFD700" height="5" style="stroke: #A80036; stroke-width: 1.5;" width="10" x="1230" y="472.25"/><text fill="#000000" font-family="sans-serif" font-size="14" lengthAdjust="spacingAndGlyphs" textLength="30" x="1245" y="469.1738">Lock</text><!--entity BatteryPack--><rect fill="#CD5C5C" filter="url(#fufibs6ioyr56)" height="37.6094" style="stroke: #A80036; stroke-width: 1.5;" width="96" x="1263" y="346.6406"/><rect fill="#CD5C5C" height="5" style="stroke: #A80036; stroke-width: 1.5;" width="10" x="1258" y="351.6406"/><rect fill="#CD5C5C" height="5" style="stroke: #A80036; stroke-width: 1.5;" width="10" x="1258" y="374.25"/><text fill="#000000" font-family="sans-serif" font-size="14" lengthAdjust="spacingAndGlyphs" textLength="76" x="1273" y="371.1738">BatteryPack</text><!--link Arduino to GND--><path d="M1029.66,65.1826 C1086.48,89.0246 1197.03,135.4146 1236,151.7646 " fill="none" id="Arduino-&gt;GND" style="stroke: #0000FF; stroke-width: 1.0;"/><polygon fill="#0000FF" points="1240.8,153.7806,1234.0599,146.5993,1236.1925,151.8388,1230.953,153.9714,1240.8,153.7806" style="stroke: #0000FF; stroke-width: 1.0;"/><!--link Arduino to 5V--><path d="M960.344,65.1826 C903.523,89.0246 792.969,135.4146 754.003,151.7646 " fill="none" id="Arduino-&gt;5V" style="stroke: #FF0000; stroke-width: 1.0;"/><polygon fill="#FF0000" points="749.199,153.7806,759.0457,153.9869,753.8096,151.8461,755.9504,146.61,749.199,153.7806" style="stroke: #FF0000; stroke-width: 1.0;"/><!--link Arduino to InputPin--><path d="M960.16,59.0366 C869.075,80.9876 626.668,139.4056 565.283,154.1986 " fill="none" id="Arduino-&gt;InputPin" style="stroke: #008000; stroke-width: 1.0;"/><polygon fill="#008000" points="560.229,155.4166,569.9156,157.197,565.0899,154.2453,568.0415,149.4196,560.229,155.4166" style="stroke: #008000; stroke-width: 1.0;"/><!--link Arduino to OutputPin--><path d="M1029.54,55.3066 C1168.2,74.0396 1681.33,143.3636 1772.95,155.7426 " fill="none" id="Arduino-&gt;OutputPin" style="stroke: #FFA500; stroke-width: 1.0;"/><polygon fill="#FFA500" points="1777.92,156.4136,1769.5387,151.2412,1772.9653,155.7421,1768.4643,159.1687,1777.92,156.4136" style="stroke: #FFA500; stroke-width: 1.0;"/><!--link OutputPin to LockCircuitControl--><path d="M1777.92,161.6826 C1729.87,172.4826 1503.08,223.4616 1384.17,250.1926 " fill="none" id="OutputPin-&gt;LockCircuitControl" style="stroke: #FFA500; stroke-width: 1.0;"/><polygon fill="#FFA500" points="1379.29,251.2896,1388.9494,253.2121,1384.1676,250.1899,1387.1898,245.408,1379.29,251.2896" style="stroke: #FFA500; stroke-width: 1.0;"/><!--link GND to LockCircuitControl--><path d="M1254.58,167.6826 C1263.68,183.6306 1284.29,219.7806 1297.92,243.6896 " fill="none" id="GND-&gt;LockCircuitControl" style="stroke: #0000FF; stroke-width: 1.0;"/><polygon fill="#0000FF" points="1300.54,248.2976,1299.5578,238.4979,1298.0638,243.9539,1292.6078,242.4598,1300.54,248.2976" style="stroke: #0000FF; stroke-width: 1.0;"/><!--link 5V to LockCircuitControl--><path d="M749.434,161.4086 C805.625,171.9386 1098.45,226.8106 1237.52,252.8706 " fill="none" id="5V-&gt;LockCircuitControl" style="stroke: #FF0000; stroke-width: 1.0;"/><polygon fill="#FF0000" points="1242.81,253.8616,1234.7092,248.2602,1237.8969,252.9333,1233.2238,256.1211,1242.81,253.8616" style="stroke: #FF0000; stroke-width: 1.0;"/><!--link LockCircuitControl to Lock--><path d="M1289.52,286.6616 C1274.13,301.0776 1254.64,322.7736 1246,346.6406 C1234.85,377.4466 1243.34,415.5539 1251.13,439.4878 " fill="none" id="LockCircuitControl-&gt;Lock" style="stroke: #A80036; stroke-width: 1.0;"/><polygon fill="#A80036" points="1252.77,444.3722,1253.6923,434.5666,1251.1761,439.6331,1246.1097,437.1169,1252.77,444.3722" style="stroke: #A80036; stroke-width: 1.0;"/><!--link LockCircuitControl to BatteryPack--><path d="M1311,286.6976 C1311,302.1536 1311,324.5056 1311,341.3136 " fill="none" id="LockCircuitControl-&gt;BatteryPack" style="stroke: #A80036; stroke-width: 1.0;"/><polygon fill="#A80036" points="1311,346.3386,1315,337.3386,1311,341.3386,1307,337.3386,1311,346.3386" style="stroke: #A80036; stroke-width: 1.0;"/><!--link BatteryPack to Lock--><path d="M1301.41,384.6975 C1293.13,400.2865 1281.12,422.8912 1272.16,439.7471 " fill="none" id="BatteryPack-&gt;Lock" style="stroke: #A80036; stroke-width: 1.0;"/><polygon fill="#A80036" points="1269.72,444.3383,1277.4757,438.268,1272.0664,439.9231,1270.4113,434.5138,1269.72,444.3383" style="stroke: #A80036; stroke-width: 1.0;"/><!--link InputPin to HallSensor1--><path d="M541.86,160.2886 C488.571,164.2696 218.654,187.3106 170,248.6406 C148.627,275.5816 166.092,316.5966 180.892,341.9496 " fill="none" id="InputPin-&gt;HallSensor1" style="stroke: #008000; stroke-width: 1.0;"/><polygon fill="#008000" points="183.614,346.4946,182.4202,336.7184,181.0445,342.2054,175.5575,340.8296,183.614,346.4946" style="stroke: #008000; stroke-width: 1.0;"/><!--link InputPin to HallSensor2--><path d="M560.051,163.3736 C613.201,185.2966 886.273,297.9326 999.116,344.4776 " fill="none" id="InputPin-&gt;HallSensor2" style="stroke: #008000; stroke-width: 1.0;"/><polygon fill="#008000" points="1004.041,346.5086,997.2456,339.3797,999.4186,344.6025,994.1958,346.7755,1004.041,346.5086" style="stroke: #008000; stroke-width: 1.0;"/><!--link InputPin to HallSensor3--><path d="M560.128,166.2296 C597.864,193.4686 742.657,297.9846 805.552,343.3836 " fill="none" id="InputPin-&gt;HallSensor3" style="stroke: #008000; stroke-width: 1.0;"/><polygon fill="#008000" points="809.936,346.5486,804.9786,338.0384,805.8815,343.6227,800.2971,344.5256,809.936,346.5486" style="stroke: #008000; stroke-width: 1.0;"/><!--link InputPin to HallSensor4--><path d="M553.783,167.6766 C563.802,196.6036 598.263,296.1046 614.022,341.6046 " fill="none" id="InputPin-&gt;HallSensor4" style="stroke: #008000; stroke-width: 1.0;"/><polygon fill="#008000" points="615.668,346.3576,616.5006,336.544,614.0308,341.6333,608.9416,339.1635,615.668,346.3576" style="stroke: #008000; stroke-width: 1.0;"/><!--link InputPin to HallSensor5--><path d="M541.859,161.1546 C512.349,166.5906 419.425,188.1226 383,248.6406 C365.466,277.7716 381.267,317.4496 394.76,342.0346 " fill="none" id="InputPin-&gt;HallSensor5" style="stroke: #008000; stroke-width: 1.0;"/><polygon fill="#008000" points="397.244,346.4436,396.3122,336.6389,394.7901,342.0872,389.3419,340.5652,397.244,346.4436" style="stroke: #008000; stroke-width: 1.0;"/><!--link InputPin to HallSensor6--><path d="M541.617,159.6756 C476.92,160.1276 97.5141,166.2976 28,248.6406 C5.8161,274.9186 23.5262,316.1336 38.5952,341.7066 " fill="none" id="InputPin-&gt;HallSensor6" style="stroke: #008000; stroke-width: 1.0;"/><polygon fill="#008000" points="41.368,346.2926,40.1341,336.5214,38.7809,342.014,33.2883,340.6607,41.368,346.2926" style="stroke: #008000; stroke-width: 1.0;"/><!--link GND to HallSensor1--><path d="M1240.85,160.8796 C1188.07,168.0816 917.098,205.7146 698,248.6406 C533.45,280.8796 340.716,328.1026 249.304,351.0796 " fill="none" id="GND-&gt;HallSensor1" style="stroke: #0000FF; stroke-width: 1.0;"/><polygon fill="#0000FF" points="244.229,352.3566,253.933,354.0396,249.0779,351.1366,251.9809,346.2814,244.229,352.3566" style="stroke: #0000FF; stroke-width: 1.0;"/><!--link GND to HallSensor2--><path d="M1244.13,167.8496 C1228.97,188.7916 1186.75,245.4536 1145,286.6406 C1123.89,307.4676 1097.53,328.3806 1077.63,343.3026 " fill="none" id="GND-&gt;HallSensor2" style="stroke: #0000FF; stroke-width: 1.0;"/><polygon fill="#0000FF" points="1073.48,346.3936,1083.0823,344.2035,1077.4831,343.3977,1078.2888,337.7986,1073.48,346.3936" style="stroke: #0000FF; stroke-width: 1.0;"/><!--link GND to HallSensor3--><path d="M1240.95,164.1126 C1193.21,187.6926 969.438,298.2316 876.074,344.3506 " fill="none" id="GND-&gt;HallSensor3" style="stroke: #0000FF; stroke-width: 1.0;"/><polygon fill="#0000FF" points="871.458,346.6306,881.2988,346.2312,875.9409,344.4163,877.7558,339.0585,871.458,346.6306" style="stroke: #0000FF; stroke-width: 1.0;"/><!--link GND to HallSensor4--><path d="M1240.64,162.6976 C1177.6,183.2726 813.56,302.1086 675.274,347.2506 " fill="none" id="GND-&gt;HallSensor4" style="stroke: #0000FF; stroke-width: 1.0;"/><polygon fill="#0000FF" points="670.45,348.8246,680.247,349.8344,675.2032,347.2731,677.7645,342.2293,670.45,348.8246" style="stroke: #0000FF; stroke-width: 1.0;"/><!--link GND to HallSensor5--><path d="M1240.74,161.5916 C1197.08,170.8146 1007.45,211.1656 853,248.6406 C711.235,283.0386 545.124,327.5736 462.017,350.1476 " fill="none" id="GND-&gt;HallSensor5" style="stroke: #0000FF; stroke-width: 1.0;"/><polygon fill="#0000FF" points="457.15,351.4696,466.884,352.9694,461.975,350.1584,464.786,345.2494,457.15,351.4696" style="stroke: #0000FF; stroke-width: 1.0;"/><!--link GND to HallSensor6--><path d="M1240.91,160.3356 C1179.15,165.1436 815.001,194.8586 523,248.6406 C370.544,276.7206 193.772,324.7156 107.255,349.2356 " fill="none" id="GND-&gt;HallSensor6" style="stroke: #0000FF; stroke-width: 1.0;"/><polygon fill="#0000FF" points="102.193,350.6726,111.9433,352.0623,107.0029,349.3069,109.7582,344.3665,102.193,350.6726" style="stroke: #0000FF; stroke-width: 1.0;"/><!--link 5V to HallSensor1--><path d="M730.558,163.1986 C673.433,184.7256 372.366,298.1796 248.897,344.7066 " fill="none" id="5V-&gt;HallSensor1" style="stroke: #FF0000; stroke-width: 1.0;"/><polygon fill="#FF0000" points="243.867,346.6026,253.6994,347.1724,248.5459,344.8397,250.8786,339.6862,243.867,346.6026" style="stroke: #FF0000; stroke-width: 1.0;"/><!--link 5V to HallSensor2--><path d="M749.088,160.0456 C785.955,162.1706 926.043,174.9786 1003,248.6406 C1029.04,273.5656 1040.25,315.2856 1044.9,341.3146 " fill="none" id="5V-&gt;HallSensor2" style="stroke: #FF0000; stroke-width: 1.0;"/><polygon fill="#FF0000" points="1045.75,346.3006,1048.1891,336.7586,1044.9141,341.371,1040.3017,338.096,1045.75,346.3006" style="stroke: #FF0000; stroke-width: 1.0;"/><!--link 5V to HallSensor3--><path d="M745.089,167.7766 C754.613,183.1916 775.477,217.8676 790,248.6406 C804.891,280.1916 818.904,318.1036 827.22,341.7926 " fill="none" id="5V-&gt;HallSensor3" style="stroke: #FF0000; stroke-width: 1.0;"/><polygon fill="#FF0000" points="828.906,346.6236,829.7182,336.8083,827.259,341.9027,822.1647,339.4435,828.906,346.6236" style="stroke: #FF0000; stroke-width: 1.0;"/><!--link 5V to HallSensor4--><path d="M735.374,167.6766 C718.69,196.6626 661.218,296.5076 635.101,341.8806 " fill="none" id="5V-&gt;HallSensor4" style="stroke: #FF0000; stroke-width: 1.0;"/><polygon fill="#FF0000" points="632.524,346.3576,640.4808,340.5533,635.0185,342.0243,633.5475,336.5621,632.524,346.3576" style="stroke: #FF0000; stroke-width: 1.0;"/><!--link 5V to HallSensor5--><path d="M730.802,165.3376 C689.034,191.2056 516.09,298.3156 442.446,343.9256 " fill="none" id="5V-&gt;HallSensor5" style="stroke: #FF0000; stroke-width: 1.0;"/><polygon fill="#FF0000" points="438.165,346.5776,447.9226,345.2398,442.4159,343.9451,443.7106,338.4384,438.165,346.5776" style="stroke: #FF0000; stroke-width: 1.0;"/><!--link 5V to HallSensor6--><path d="M730.896,161.7346 C691.013,170.9626 527.818,209.2916 396,248.6406 C292.595,279.5076 173.638,321.3056 106.785,345.3826 " fill="none" id="5V-&gt;HallSensor6" style="stroke: #FF0000; stroke-width: 1.0;"/><polygon fill="#FF0000" points="102.0631,347.0846,111.8863,347.7947,106.7667,345.3886,109.1728,340.269,102.0631,347.0846" style="stroke: #FF0000; stroke-width: 1.0;"/><!--link OutputPin to SignalDiaode1--><path d="M1786.26,167.6766 C1783.58,196.5446 1774.39,295.7016 1770.16,341.3276 " fill="none" id="OutputPin-&gt;SignalDiaode1" style="stroke: #FFA500; stroke-width: 1.0;"/><polygon fill="#FFA500" points="1769.69,346.3576,1774.5024,337.7645,1770.1508,341.3789,1766.5364,337.0273,1769.69,346.3576" style="stroke: #FFA500; stroke-width: 1.0;"/><!--link OutputPin to SignalDiaode2--><path d="M1780.37,167.6766 C1756.38,196.7796 1673.5,297.3156 1636.31,342.4276 " fill="none" id="OutputPin-&gt;SignalDiaode2" style="stroke: #FFA500; stroke-width: 1.0;"/><polygon fill="#FFA500" points="1633.07,346.3576,1641.8815,341.9579,1636.2506,342.4997,1635.7088,336.8689,1633.07,346.3576" style="stroke: #FFA500; stroke-width: 1.0;"/><!--link OutputPin to SignalDiaode3--><path d="M1777.68,165.5546 C1736.44,191.7316 1569.18,297.8866 1497.2,343.5686 " fill="none" id="OutputPin-&gt;SignalDiaode3" style="stroke: #FFA500; stroke-width: 1.0;"/><polygon fill="#FFA500" points="1492.6,346.4886,1502.3406,345.0325,1496.8186,343.8047,1498.0463,338.2827,1492.6,346.4886" style="stroke: #FFA500; stroke-width: 1.0;"/><!--link OutputPin to SignalDiaode4--><path d="M1792.1,167.6766 C1810.48,196.6626 1873.79,296.5076 1902.57,341.8806 " fill="none" id="OutputPin-&gt;SignalDiaode4" style="stroke: #FFA500; stroke-width: 1.0;"/><polygon fill="#FFA500" points="1905.41,346.3576,1903.9754,336.6138,1902.7354,342.1331,1897.2161,340.8931,1905.41,346.3576" style="stroke: #FFA500; stroke-width: 1.0;"/><!--link OutputPin to SignalDiaode5--><path d="M1796.25,166.4616 C1833.7,194.0746 1974.96,298.2446 2036.29,343.4696 " fill="none" id="OutputPin-&gt;SignalDiaode5" style="stroke: #FFA500; stroke-width: 1.0;"/><polygon fill="#FFA500" points="2040.57,346.6226,2035.7058,338.0588,2036.5477,343.6526,2030.9538,344.4945,2040.57,346.6226" style="stroke: #FFA500; stroke-width: 1.0;"/><!--link OutputPin to SignalDiaode6--><path d="M1796.27,164.1126 C1845.16,187.6926 2074.32,298.2316 2169.94,344.3506 " fill="none" id="OutputPin-&gt;SignalDiaode6" style="stroke: #FFA500; stroke-width: 1.0;"/><polygon fill="#FFA500" points="2174.66,346.6306,2168.2908,339.1184,2170.1563,344.4588,2164.8159,346.3243,2174.66,346.6306" style="stroke: #FFA500; stroke-width: 1.0;"/><!--link GND to SignalDiaode1--><path d="M1259.33,162.8756 C1291.79,174.1686 1402.7,213.0846 1493,248.6406 C1574.2,280.6146 1667.58,320.7236 1721.97,344.4256 " fill="none" id="GND-&gt;SignalDiaode1" style="stroke: #0000FF; stroke-width: 1.0;"/><polygon fill="#0000FF" points="1726.79,346.5266,1720.1412,339.2607,1722.2074,344.5267,1716.9414,346.5929,1726.79,346.5266" style="stroke: #0000FF; stroke-width: 1.0;"/><!--link GND to SignalDiaode2--><path d="M1259.16,163.5086 C1286.65,175.2276 1370.68,211.7986 1437,248.6406 C1491.71,279.0336 1552.4,319.3796 1587.77,343.6006 " fill="none" id="GND-&gt;SignalDiaode2" style="stroke: #0000FF; stroke-width: 1.0;"/><polygon fill="#0000FF" points="1591.96,346.4726,1586.8016,338.0827,1587.837,343.644,1582.2758,344.6794,1591.96,346.4726" style="stroke: #0000FF; stroke-width: 1.0;"/><!--link GND to SignalDiaode3--><path d="M1259.35,163.3256 C1284.34,173.5616 1353.78,204.5246 1397,248.6406 C1423.85,276.0536 1443.92,316.3186 1454.8,341.4796 " fill="none" id="GND-&gt;SignalDiaode3" style="stroke: #0000FF; stroke-width: 1.0;"/><polygon fill="#0000FF" points="1456.85,346.3026,1457.0072,336.455,1454.8925,341.7017,1449.6458,339.5871,1456.85,346.3026" style="stroke: #0000FF; stroke-width: 1.0;"/><!--link GND to SignalDiaode4--><path d="M1259.03,162.0536 C1296.58,172.1176 1443.98,211.9296 1564,248.6406 C1668.67,280.6576 1789.66,321.1926 1859.36,344.8886 " fill="none" id="GND-&gt;SignalDiaode4" style="stroke: #0000FF; stroke-width: 1.0;"/><polygon fill="#0000FF" points="1864.29,346.5646,1857.0625,339.8741,1859.5575,344.951,1854.4807,347.446,1864.29,346.5646" style="stroke: #0000FF; stroke-width: 1.0;"/><!--link GND to SignalDiaode5--><path d="M1259.01,161.4756 C1302.28,170.3316 1493.13,209.8116 1648,248.6406 C1775.13,280.5156 1922.6,322.8046 2003.68,346.5196 " fill="none" id="GND-&gt;SignalDiaode5" style="stroke: #0000FF; stroke-width: 1.0;"/><polygon fill="#0000FF" points="2008.92,348.0546,2001.418,341.6734,2004.124,346.6411,1999.1563,349.3471,2008.92,348.0546" style="stroke: #0000FF; stroke-width: 1.0;"/><!--link GND to SignalDiaode6--><path d="M1259.12,161.0636 C1308.47,168.8116 1548.65,207.1076 1743,248.6406 C1890.32,280.1236 2061.78,324.5276 2150.99,348.2266 " fill="none" id="GND-&gt;SignalDiaode6" style="stroke: #0000FF; stroke-width: 1.0;"/><polygon fill="#0000FF" points="2155.96,349.5476,2148.2909,343.3682,2151.1281,348.2622,2146.2341,351.0993,2155.96,349.5476" style="stroke: #0000FF; stroke-width: 1.0;"/><!--
@startuml
title Circuit

interface GND #Blue
interface 5V #Red
interface InputPin #Green
interface OutputPin #Orange

component HallSensor1 #Plum
component HallSensor2 #Plum
component HallSensor3 #Plum
component HallSensor4 #Plum
component HallSensor5 #Plum
component HallSensor6 #Plum
component SignalDiaode1 #YellowGreen
component SignalDiaode2 #YellowGreen
component SignalDiaode3 #YellowGreen
component SignalDiaode4 #YellowGreen
component SignalDiaode5 #YellowGreen
component SignalDiaode6 #YellowGreen
component Arduino #Teal
component LockCircuitControl #SkyBlue
component Lock #Gold
component BatteryPack #IndianRed

Arduino - -[#Blue]> GND
Arduino - -[#Red]> 5V
Arduino - -[#Green]> InputPin
Arduino - -[#Orange]> OutputPin

OutputPin - -[#Orange]> LockCircuitControl
GND - -[#Blue]> LockCircuitControl
5V - -[#Red]> LockCircuitControl
LockCircuitControl - -> Lock
LockCircuitControl - -> BatteryPack
BatteryPack - -> Lock

InputPin - - -[#Green]> HallSensor1
InputPin - - -[#Green]> HallSensor2
InputPin - - -[#Green]> HallSensor3
InputPin - - -[#Green]> HallSensor4
InputPin - - -[#Green]> HallSensor5
InputPin - - -[#Green]> HallSensor6
GND - - -[#Blue]> HallSensor1
GND - - -[#Blue]> HallSensor2
GND - - -[#Blue]> HallSensor3
GND - - -[#Blue]> HallSensor4
GND - - -[#Blue]> HallSensor5
GND - - -[#Blue]> HallSensor6
5V - - -[#Red]> HallSensor1
5V - - -[#Red]> HallSensor2
5V - - -[#Red]> HallSensor3
5V - - -[#Red]> HallSensor4
5V - - -[#Red]> HallSensor5
5V - - -[#Red]> HallSensor6

OutputPin - - -[#Orange]> SignalDiaode1
OutputPin - - -[#Orange]> SignalDiaode2
OutputPin - - -[#Orange]> SignalDiaode3
OutputPin - - -[#Orange]> SignalDiaode4
OutputPin - - -[#Orange]> SignalDiaode5
OutputPin - - -[#Orange]> SignalDiaode6
GND - - -[#Blue]> SignalDiaode1
GND - - -[#Blue]> SignalDiaode2
GND - - -[#Blue]> SignalDiaode3
GND - - -[#Blue]> SignalDiaode4
GND - - -[#Blue]> SignalDiaode5
GND - - -[#Blue]> SignalDiaode6

@enduml

PlantUML version 1.2019.09(Mon Aug 26 18:19:51 CEST 2019)
(GPL source distribution)
Java Runtime: OpenJDK Runtime Environment
JVM: OpenJDK 64-Bit Server VM
Java Version: 13.0.2+8
Operating System: Windows 10
OS Version: 10.0
Default Encoding: Cp1252
Language: en
Country: GB
--></g></svg>